<?xml version="1.0"?>
<svg xmlns="http://www.w3.org/2000/svg" version="1.2" baseProfile="tiny" width="800" height="424" viewBox="0 0 800 424" stroke-linecap="round" stroke-linejoin="round">
<g id="swissBOUNDARIES3D_1_3_TLM_HOHEITSGEBIET">
<path d="M 696.15 260.62 694.67 261.35 692.82 263.79 689.77 265.47 687.96 267.26 688.12 269.11 684.02 270.92 682.9 273.63 682.82 276.7 680.69 277.16 675.73 277.24 671.23 278.99 671.46 281.68 669.5 284.44 659.91 288.99 656.1 288.38 654.4 288.78 651.07 287.39 645.2 289.14 642.81 292.36 631.32 293.6 628.3 295.36 624.75 295.81 620.32 297.06 610.09 298.27 611.76 301.55 607.91 301.57 606.08 302.39 601.47 308.11 600.62 311.25 601.48 312.39 597.71 314.51 593.27 319.66 591.68 322.69 596.1 322.95 596.63 326.03 598.23 327.49 595.54 329.01 593.84 330.88 586.92 331.27 584.42 333 581.43 330.72 578.24 332.12 579.71 333.07 580.03 336.97 576.42 338.03 577.37 340.09 575.31 341.74 576.07 343.52 574.69 346.43 569.56 345.68 557.29 349.39 553.27 350.9 547.21 352.45 546.04 352.14 541.13 348.6 540.94 347.16 530.96 345.6 524.23 344.87 519.7 343.25 517.23 344.15 514.59 342.89 510.47 344.11 508.08 343.42 504.95 340.86 500.29 340.66 495.93 341.76 491.97 341.06 489.1 339.92 486.15 340.57 474.65 344.3 471.99 344.78 464.58 346.89 463.82 345.37 459.87 345.79 454.06 347.01 452.73 346.46 442.56 348.87 437 348.8 431.57 341.24 435.28 340.87 443.2 336.78 446.4 336.02 448.85 332.66 452.93 329.68 451.54 326.32 453.24 324.44 452.88 321.12 454.54 318.32 458.79 315.39 460.22 315.08 461.61 312.21 465.21 311.14 467.03 309.4 469.08 304.53 468.95 300.97 465.88 296.73 461.26 295.94 461.36 294.2 459.58 293.92 461.32 291.34 462.97 284.07 460.15 282.68 460.15 280.88 468.72 278.61 467.52 277.14 468.09 274.92 467.25 272.47 470.95 270.38 472.42 268.9 476.83 267.94 477.37 265.35 481.55 259.2 483.65 258.13 485.8 258.64 488.73 257.93 486.77 256.52 486.35 253.66 489.47 250.68 489.18 249.33 492.03 246.48 494.87 246.42 498 244.3 498.5 241.82 501.47 239.95 499.33 239.1 498.53 237.47 505.6 235.87 506.61 236.1 516.58 233.74 516.65 232.35 521.75 230.82 521.84 229.06 519.31 226.19 520.61 221.49 522.35 222.28 527.62 221.95 531.26 222.18 531.27 220.44 532.6 219.13 534.92 218.67 537.49 220.78 541.4 221.96 544.53 222.93 551.6 227.03 557.03 229 562.21 231.7 566.38 232.65 568.4 233.86 572.52 234.3 576.25 236.22 584.23 237.42 587.69 237.39 595.69 235.54 600.99 236.2 607.47 239.14 612.17 238.01 612.53 237.16 616.23 236.12 616.77 234.33 621.59 232.35 624.42 231.85 628.56 232.12 630.05 230.39 632.55 232.28 637.29 234.75 633.46 236.53 637.63 236.96 643.87 236.09 647.29 240.08 649.13 240.42 651.27 243.1 655.79 243.02 661.09 246.94 669.63 244.07 675.31 244.05 676.39 244.99 675.15 249.72 678.52 252.39 683.76 253.88 689.35 259.5 696.15 260.62 Z" id="Nesslau" data-bfs_nummer="3360"/>
<path d="M 696.15 260.62 699.62 259.59 700.51 258.58 707.41 257.22 718.46 258.01 721.78 257.5 722.32 259.67 729.49 263.36 732.32 264.2 741.97 264.19 750.23 265.51 751.38 267.22 757.22 269.39 762.02 271.96 763.45 273.72 768.08 274.97 772.78 277.78 781.5 275.74 782.85 274.98 791.46 273.35 799 273.08 798.81 275.3 797.08 278.46 798.45 279.87 793.37 284.19 788.14 285.92 782.63 288.92 785.91 301.21 788.39 308.7 787.33 310.47 792.19 311.18 789.89 312.73 789.94 314.67 786.85 318 787.9 319.72 783 322.96 782.81 324.08 780.35 325.86 778.54 325.15 775.07 325.69 771.55 328.36 768.53 331.96 766.18 333.76 764.87 337.06 758.12 337.37 749.08 336.96 740.53 338.3 738.52 340.34 733.02 340.81 730.98 341.53 724.72 344.8 722.36 347.32 718.52 347.54 711.76 351.21 707.8 354 705.67 356.14 704.89 358.99 705.68 361.66 699.96 362.97 694.31 363.69 693.45 366.61 694.56 368.59 692.8 372.07 692.15 375.16 688.04 381.83 688.4 383.35 691.67 384.58 691.9 386.34 693.86 387.02 696.53 390.51 701.97 391.24 701.71 393.41 694.23 392.3 690.4 391.41 690.8 389.9 689.31 387.62 687.1 385.77 685.61 385.97 682.98 382.63 681.93 382.31 673.97 382.89 671.28 384.05 666.93 383.89 665.63 382.58 662.9 383.38 656.81 382.05 653.94 382.82 650.64 382.27 646.83 383.15 643.38 383.26 639.72 384.91 636.25 383.96 630.04 385.06 627.55 386.15 620.95 386.75 620.11 385.51 617.69 385.59 615.43 386.84 607.85 385.83 606.27 384.95 601.87 385.84 600.23 387.74 589.41 388.98 585.48 390.26 583.39 390.05 582.42 391.41 578.91 392.41 575.89 394.27 574.15 393.93 571.11 394.72 565.72 395.22 563.12 394.05 561.07 395.2 559.56 394.33 560.71 389.9 560.96 386.16 565.52 380.16 562.42 377.67 560.82 378.03 558.49 375.47 562.1 371.81 561.29 370.26 563.48 368.23 565.42 368.42 570.63 366.59 571.87 365.32 574.44 364.58 574.92 363.46 579.22 360.36 580.94 358.51 575.12 356.4 574.11 355.3 574.33 353.03 571.23 350.3 569.56 345.68 574.69 346.43 576.07 343.52 575.31 341.74 577.37 340.09 576.42 338.03 580.03 336.97 579.71 333.07 578.24 332.12 581.43 330.72 584.42 333 586.92 331.27 593.84 330.88 595.54 329.01 598.23 327.49 596.63 326.03 596.1 322.95 591.68 322.69 593.27 319.66 597.71 314.51 601.48 312.39 600.62 311.25 601.47 308.11 606.08 302.39 607.91 301.57 611.76 301.55 610.09 298.27 620.32 297.06 624.75 295.81 628.3 295.36 631.32 293.6 642.81 292.36 645.2 289.14 651.07 287.39 654.4 288.78 656.1 288.38 659.91 288.99 669.5 284.44 671.46 281.68 671.23 278.99 675.73 277.24 680.69 277.16 682.82 276.7 682.9 273.63 684.02 270.92 688.12 269.11 687.96 267.26 689.77 265.47 692.82 263.79 694.67 261.35 696.15 260.62 Z" id="Wildhaus-Alt St. Johann" data-bfs_nummer="3359"/>
<path d="M 98.96 262.87 99.72 260.7 103.88 259.24 103.32 254.08 105.17 253.78 118.8 253 124.11 252.69 131.97 251.18 137.06 250.58 139.18 249.7 144.97 249.25 149.14 247.82 149.56 250.89 153.12 250.36 160.57 248.47 165.22 247.69 170.98 245.82 175.58 245.02 176.52 243.48 181.8 245.01 183.11 243.6 185.42 243.07 187.02 241.49 187.89 237.9 192.12 235.65 191.27 233.86 194.75 233.81 196.75 231.04 194.41 230.47 192.36 227.62 194.61 227.02 197.18 225.19 200.28 223.86 201.34 220.16 201.06 218.49 202.5 215.97 200.7 214.81 198.29 214.52 195.68 217.74 193.47 217.65 193.45 214.41 191.63 211.46 188.34 210.01 186.38 207.79 182.61 206.27 184.94 205.11 188.06 205.03 191.99 204.04 194.93 202.37 196.13 202.99 202.52 201 202.82 198.17 206.43 195.66 206.49 193.84 208.13 192.42 211.04 186.84 212.64 185.27 218.24 183.38 222.98 182.53 226.48 183.29 236.96 181.51 240.59 176.36 245.76 171.05 246.45 169.09 250.05 165.36 253.6 165.38 256.46 166.88 260.02 167.57 265.42 172.62 266.16 174.89 271.26 177.17 271.9 181.16 271.69 183.73 278.41 189.14 282.17 191.47 291.79 193.51 296.68 193.4 297.81 195.42 304.88 201.84 304.88 204.16 307.05 205.05 311.1 205.39 319.99 208.71 319.79 210.73 323.28 210.76 330.95 209.18 332.98 209.21 334.17 212.49 332.96 217.71 329.32 219.36 328.86 221.51 326.96 222.18 324.02 225.04 323.34 229.08 322.08 230.72 323.93 232.11 325.2 234.48 319.99 234.18 316.52 233.55 306.63 233.82 302.97 235.25 298.99 236.06 296.81 237.37 287.88 238.45 286.2 238.32 282.5 236.5 280.89 237.16 279.67 239.64 274.21 242.79 273.74 244.16 271.18 244.8 265.09 247.74 263.32 249.48 260.36 250.38 264.41 254.48 267.21 255.82 264.63 258.13 260.97 258.16 258.32 258.8 255.34 261.35 248.62 263.08 246.34 265.37 244.24 268.49 237.08 270.28 232.37 271.15 231.3 270.84 226.49 272.16 220.5 273.24 218.97 275.2 215.54 276.31 214.06 275.81 210.38 276.19 206.51 277.06 205.45 276.57 195.24 278.75 192.97 279.02 192.66 280.85 184.37 279.33 180.88 280.07 178.11 281.88 174.42 282.34 168.31 282.49 161.54 284.21 159.82 283.14 158.9 279.88 153.75 280.34 154.34 277.76 141.93 274.45 139.73 271.9 134.41 270.27 127.83 268.89 124.72 267.36 122.25 267.8 113.38 266.25 108.26 267.39 106.3 268.52 104.28 266.62 104.42 264.85 98.96 262.87 Z" id="Eschenbach (SG)" data-bfs_nummer="3342"/>
<path d="M 463.19 190.57 460.18 192.75 463.06 198.56 466.63 201.6 465.37 202.98 465.32 205.08 471.36 211.86 469.6 213.78 466.9 215.99 464.99 216.03 462.73 213.98 457.02 212.71 449.58 214.04 447.88 212.63 445.58 213.41 443.18 212.63 441.94 213.95 443.07 217.7 441.18 218.01 435.18 217.77 431.74 218.23 429.99 217.59 426.81 217.96 423.7 219.02 421.02 220.9 415.85 220.97 412.69 221.48 409.18 219.42 404.9 220 408.99 222.08 411.08 225.52 407.19 226.44 406.59 229.43 404.33 232.87 395.77 237.21 398.3 239.64 396.88 240.85 391.15 243.2 388.66 243.03 385 244.71 383.71 243.97 377.37 245.88 377.49 251.98 376.79 254.01 372.6 256.25 367.04 257.13 366.21 255.63 362.41 252.96 357.85 250.95 356.98 251.31 351.75 248.96 349.92 247.37 347.47 247.18 344.59 245.45 342.97 245.28 339.37 243.25 334.73 241.86 334.91 239.56 330.28 239.49 328.83 237.3 325.95 235.91 325.2 234.48 323.93 232.11 322.08 230.72 323.34 229.08 324.02 225.04 326.96 222.18 328.86 221.51 329.32 219.36 332.96 217.71 334.17 212.49 332.98 209.21 330.95 209.18 323.28 210.76 319.79 210.73 319.99 208.71 311.1 205.39 307.05 205.05 304.88 204.16 304.88 201.84 297.81 195.42 296.68 193.4 298.66 192.48 303.68 188.08 308.55 186.33 311.22 180.77 316.33 177.81 314.26 168.37 313.1 164.88 315.46 164.72 315.18 163.03 316.35 161.67 319.24 163.5 321.45 163.01 324.36 160.51 327.19 159.81 327.27 158.05 325.12 157.97 321.62 156.71 319.68 154.39 322.98 152.25 327.21 151.85 329.16 150.66 331.99 150.24 332.26 148.91 338.12 143.26 334.88 142.59 333.96 143.45 330.46 142.61 330.9 141.35 334.22 140.11 340.93 140.37 343.96 143.01 342.91 144.39 344.1 145.79 339.15 148.31 339 149.28 333.71 150.83 336.62 151.57 338.68 153.8 340.12 157.63 344.6 156.74 347.99 159.54 349.65 158.79 350.38 155.18 354.79 155.49 356.87 154.22 364.54 152.65 365.91 151.52 370.46 151.33 375.9 149.31 376.92 147.06 377.47 150.16 376.59 151.35 378.48 153.7 377.52 154.93 381.02 156.87 377.27 158.76 379.49 160.28 382.36 161.25 384.79 163.01 387.5 161.61 392.18 161 394.13 161.24 396.59 163.06 399.35 168.37 394.84 171.72 397.58 173.41 405.53 168.12 412.84 167.58 415.71 167.88 417.47 169.75 422.03 169.42 424.58 167.87 423.99 166.61 423.98 165.36 428.28 165.61 431.77 166.51 432.52 169.2 438.53 172.42 442.22 173.66 446.09 173.2 448.53 174.56 453.72 174.66 456.72 175.36 455.38 178.21 458.18 180.63 454.05 181.94 454.26 185.51 455.55 186.72 459.55 188.61 461.51 190.65 463.19 190.57 Z" id="Wattwil" data-bfs_nummer="3379"/>
<path d="M 355.58 70.71 356.3 71.47 354.88 74.12 351.22 77.33 352.61 78.93 347.4 80.39 346.68 82.8 344.46 82.92 343.01 85.55 345.74 86.79 347.1 88.99 345.48 90.84 346.16 92.11 345.21 93.95 346.68 97.3 346.15 99.28 346.94 101.34 350.66 103.15 352 106.81 350.48 108.64 346.84 110.03 345.76 111.69 349.95 116.84 348.67 117.92 350.67 119.38 348.36 120.57 345.18 120.45 343.17 121.63 341.36 124.27 337.01 124.37 337.26 125.54 333.47 125.98 331.82 128.07 331.83 130.66 329.29 130.12 326.83 132.12 327.09 133.95 329.74 138.9 333.6 138.68 334.22 140.11 330.9 141.35 330.46 142.61 333.96 143.45 334.88 142.59 338.12 143.26 332.26 148.91 331.99 150.24 329.16 150.66 327.21 151.85 322.98 152.25 319.68 154.39 321.62 156.71 325.12 157.97 327.27 158.05 327.19 159.81 324.36 160.51 321.45 163.01 319.24 163.5 316.35 161.67 315.18 163.03 315.46 164.72 313.1 164.88 314.26 168.37 316.33 177.81 311.22 180.77 308.55 186.33 303.68 188.08 298.66 192.48 296.68 193.4 291.79 193.51 282.17 191.47 278.41 189.14 271.69 183.73 271.9 181.16 271.26 177.17 266.16 174.89 265.42 172.62 260.02 167.57 256.46 166.88 253.6 165.38 250.05 165.36 248.98 163.79 244.68 161.04 243.1 159.2 243.21 157.3 240.02 155.1 239.17 152.32 240.01 148 241.75 145.9 242.59 140.92 234.46 138.39 235.68 136.38 235.34 131.82 234.73 130.04 236.19 128.5 233.75 125.24 232.53 122.51 229.71 121.6 227.02 119.45 223.27 119.18 217.54 120.19 216.33 114.93 213.32 112.32 210.76 108.38 210.2 106.46 207.26 102.76 206.4 100.77 205.66 96.46 203.35 94.94 201.81 92.56 198.09 92.53 195.59 91.03 195.53 90.94 197.29 88.01 199.96 87.55 202.23 85.73 209.03 84.38 213.17 79.24 213.85 77.09 219.12 78.59 222.52 77.74 225.57 78.05 225.44 74.52 227.81 70.72 232.33 70.7 233.49 74.37 233.68 77.23 235.22 79.44 237.97 81.72 236.58 85.21 240.13 85.95 239.02 87.09 247.12 90.63 249.46 90.49 251.76 91.61 253.07 90.42 256.52 91.7 260.7 92.5 264.13 92.22 265.79 89.47 267.55 89.92 268.86 88.45 272.02 88.06 272.29 86.27 274.48 84.58 276.23 81.03 278.41 82.2 281.13 80.53 281.42 78.59 285.07 78.91 289.25 78.29 293.04 78.98 293.9 77.63 297.4 77.5 294.72 80.6 297.83 81.3 296.66 84.07 297.13 85.15 299.79 85.44 300.86 87.59 305.84 87.33 308.88 86.59 309.88 88.08 315.67 88.72 317.68 86.22 320.4 85.22 319.91 82.91 327.12 82.95 329.88 81.59 332.82 81.13 335.67 83.62 338.02 83.93 340.18 81.42 339.39 79.52 343.08 75.61 345.3 75.03 345.54 73.77 353.8 71.74 355.58 70.71 Z" id="Mosnang" data-bfs_nummer="3394"/>
<path d="M 470.15 68.05 472.84 67.33 481.49 67.98 481.48 71.11 479.82 71.86 479.38 75.41 480.43 77.21 482.63 77.49 485.68 80.14 490.55 79.24 497.31 79.33 497.81 77.63 500.73 78.16 504.05 79.85 512.02 80.31 510.9 82.9 509.07 83.67 511.54 86.37 511 87.86 512.92 88.74 512.37 91.94 514.64 95.89 517.59 98.52 516.89 100.54 519.16 103.59 517.14 105.59 519.74 106.62 521.44 108.54 523.45 109.78 523.51 111.35 525.78 113.26 528.12 119.34 527.4 120.49 523.58 120.46 522.47 122.14 524.11 124.32 527.69 127.19 531.38 127.98 536.46 131.24 538.96 134.94 540.57 135.14 541.44 139.36 543.79 138.8 547.79 136.82 550.19 137.65 552.53 136.3 559.57 135.19 562.16 133.82 565.57 134.86 569.38 140.13 572.95 142.73 575.57 145.49 577.03 148.78 576.24 150.21 572.66 151.9 569.78 152.22 564.06 155.09 563.12 156.58 558.14 157.05 555.64 158.77 552.83 159.18 552.72 160.77 549.35 161.13 546.11 163.37 544.97 164.63 541.43 164.61 540.15 165.52 530.59 168.78 521.76 167.94 517.78 169.41 514.08 167.98 510.04 171.08 509.02 172.77 505.02 172.42 501.96 173 501.78 174.73 496.49 172.29 491.5 175.38 488.26 176.35 486.91 179.15 481.56 179.27 481.42 181.52 480.24 183.04 474.12 186.56 471.74 188.52 465.4 190.68 463.19 190.57 461.51 190.65 459.55 188.61 455.55 186.72 454.26 185.51 454.05 181.94 458.18 180.63 455.38 178.21 456.72 175.36 453.72 174.66 448.53 174.56 446.09 173.2 442.22 173.66 438.53 172.42 432.52 169.2 431.77 166.51 436.91 164.23 437.41 162.55 436.86 159.04 437.48 156.92 433.11 154.74 431.32 154.72 430.18 152.11 425.63 152.42 423.91 149.99 424.12 147.64 426.27 143.97 432.38 139.74 437.73 141.39 440.06 140.66 440.16 138.32 443.49 135.67 451.82 141.19 454.4 141.92 457.71 141.85 456.33 139.46 453.56 136.7 451.55 130.98 450.07 129.93 446.62 129.12 441.63 129.58 442.19 128.38 439.93 127.31 439.82 124.28 441.1 121.33 438.12 118.32 437.76 117.02 441.32 117.05 443.77 115.89 441.7 114.65 439.44 111.08 436.14 110.94 434.94 109.76 431.31 108.65 428.2 104.77 427.16 101.81 428.11 99.7 425.46 99.7 426.01 97.33 428.2 96.95 428.01 94.87 433.08 92.64 435.44 88.78 437.43 89.06 439.86 87.73 437.28 86.92 437.11 85.55 440.17 82.66 436.64 80.83 436.58 77.07 435.56 75.09 437.9 71.2 441.01 70.88 445.61 68.43 447.6 68.36 452.51 70.57 453.12 71.61 458.7 74.12 460.15 75.65 464.04 74.68 466.4 73.1 470.15 68.05 Z" id="Neckertal" data-bfs_nummer="3378"/>
<path d="M 421.82 411.06 416.05 406.98 411.95 404.9 409.61 399.66 410.12 396.85 409.38 394.24 411.12 387.02 410.5 385.97 410.61 381.59 411.77 378.29 413.13 377.61 414.3 374.87 416.06 373.67 416.88 369.2 419.74 366.89 418.78 365.3 419.03 361 420.55 360.45 421.19 358.6 420.5 355.87 420.91 353.78 422.82 349.62 424.86 347.98 425.83 345.18 428.62 342.83 431.57 341.24 437 348.8 442.56 348.87 452.73 346.46 454.06 347.01 459.87 345.79 463.82 345.37 464.58 346.89 471.99 344.78 474.65 344.3 486.15 340.57 489.1 339.92 491.97 341.06 495.93 341.76 500.29 340.66 504.95 340.86 508.08 343.42 510.47 344.11 514.59 342.89 517.23 344.15 519.7 343.25 524.23 344.87 530.96 345.6 540.94 347.16 541.13 348.6 546.04 352.14 547.21 352.45 553.27 350.9 557.29 349.39 569.56 345.68 571.23 350.3 574.33 353.03 574.11 355.3 575.12 356.4 580.94 358.51 579.22 360.36 574.92 363.46 574.44 364.58 571.87 365.32 570.63 366.59 565.42 368.42 563.48 368.23 561.29 370.26 562.1 371.81 558.49 375.47 560.82 378.03 562.42 377.67 565.52 380.16 560.96 386.16 560.71 389.9 559.56 394.33 554.61 393.77 546.78 393.81 542.37 395.63 539.25 396.23 533.09 398.46 528.46 398.42 524.04 398.95 521.25 399.83 519.17 401.84 522.46 407.66 520.25 411.6 519.84 422.98 464.31 416.11 448.8 412.08 421.82 411.06 Z" id="Amden" data-bfs_nummer="3311"/>
<path d="M 420.16 323.77 420.92 322.1 417.45 318.22 415.6 317.05 415.91 313.97 413.05 311.32 412.8 309.21 408.49 307.93 408.45 304.28 410.27 302.72 407.34 300.57 408.23 298.42 411.83 294.95 410.02 292.39 408.21 291.84 405.66 289.71 405.91 287.02 406.98 285.31 405.08 281.79 406.62 280.26 405.55 279.34 404.52 275.96 399.81 274.93 398.14 272.71 384.18 270.32 384.52 267.11 382.55 264.48 383.22 262.74 378.21 262.57 373.98 261.22 367.59 258.61 367.04 257.13 372.6 256.25 376.79 254.01 377.49 251.98 377.37 245.88 383.71 243.97 385 244.71 388.66 243.03 391.15 243.2 396.88 240.85 398.3 239.64 395.77 237.21 404.33 232.87 406.59 229.43 407.19 226.44 411.08 225.52 408.99 222.08 404.9 220 409.18 219.42 412.69 221.48 415.85 220.97 421.02 220.9 423.7 219.02 426.81 217.96 429.99 217.59 431.74 218.23 435.18 217.77 441.18 218.01 443.07 217.7 441.94 213.95 443.18 212.63 445.58 213.41 447.88 212.63 449.58 214.04 457.02 212.71 462.73 213.98 464.99 216.03 466.9 215.99 469.6 213.78 473.25 216.57 474.18 216.37 477.58 221.2 479.81 220.48 485.33 220.08 487.13 220.63 489.49 219.46 494.72 219.06 495.35 219.75 501.97 220 505.85 218.85 514.13 218.52 514.76 217.12 517.96 216.95 520.6 218.39 520.61 221.49 519.31 226.19 521.84 229.06 521.75 230.82 516.65 232.35 516.58 233.74 506.61 236.1 505.6 235.87 498.53 237.47 499.33 239.1 501.47 239.95 498.5 241.82 498 244.3 494.87 246.42 492.03 246.48 489.18 249.33 489.47 250.68 486.35 253.66 486.77 256.52 488.73 257.93 485.8 258.64 483.65 258.13 481.55 259.2 477.37 265.35 476.83 267.94 472.42 268.9 470.95 270.38 467.25 272.47 468.09 274.92 467.52 277.14 468.72 278.61 460.15 280.88 460.15 282.68 462.97 284.07 461.32 291.34 459.58 293.92 461.36 294.2 461.26 295.94 465.88 296.73 468.95 300.97 469.08 304.53 467.03 309.4 465.21 311.14 461.61 312.21 460.22 315.08 458.79 315.39 454.54 318.32 452.88 321.12 453.24 324.44 451.54 326.32 452.93 329.68 448.85 332.66 446.4 336.02 443.2 336.78 435.28 340.87 431.57 341.24 430.12 338.94 429.71 335.33 426.4 332.94 426.71 331.25 424.77 328.54 423.27 328.42 420.42 325.27 420.16 323.77 Z" id="Ebnat-Kappel" data-bfs_nummer="3352"/>
<path d="M 355.58 70.71 353.8 71.74 345.54 73.77 345.3 75.03 343.08 75.61 339.39 79.52 340.18 81.42 338.02 83.93 335.67 83.62 332.82 81.13 329.88 81.59 327.12 82.95 319.91 82.91 320.4 85.22 317.68 86.22 315.67 88.72 309.88 88.08 308.88 86.59 305.84 87.33 300.86 87.59 299.79 85.44 297.13 85.15 296.66 84.07 297.83 81.3 294.72 80.6 297.4 77.5 293.9 77.63 293.04 78.98 289.25 78.29 285.07 78.91 281.42 78.59 281.13 80.53 278.41 82.2 276.23 81.03 274.48 84.58 272.29 86.27 272.02 88.06 268.86 88.45 267.55 89.92 265.79 89.47 264.13 92.22 260.7 92.5 256.52 91.7 253.07 90.42 251.76 91.61 249.46 90.49 247.12 90.63 239.02 87.09 240.13 85.95 236.58 85.21 237.97 81.72 235.22 79.44 233.68 77.23 233.49 74.37 232.33 70.7 232.51 68.62 234.57 65.62 236.33 61.37 237.88 60.11 235.54 55.96 233.37 54.34 233.81 52.35 235.85 51.72 237.04 48.36 239.03 45.18 242.44 44.6 242.46 43.3 245.95 42.81 247.93 44.19 255.03 44.4 256.14 40.55 257.47 38.35 258.01 35.24 260.26 30.49 258.87 27.46 255.98 26.36 258.24 24.31 256.82 23.49 256.01 20.48 257.25 19.15 262.34 19.95 263.64 18.95 269.68 16.92 267.84 14.66 268.79 13.03 274.2 14.5 281.8 13.71 283.18 12.78 285.64 15.18 288.66 12.96 292.46 11.17 294.55 10.82 295.74 6.14 299.04 4.36 303.23 7.8 304.72 10.22 306.41 10.43 311.48 9.7 313.16 6.98 315.97 7.56 318.34 9.79 320.71 9.02 318.53 7.46 320.21 6.34 320.03 4.66 325.56 6.29 329.25 2.75 332.12 2.71 332.35 1 339.67 3.2 341.38 2.36 341.41 3.95 346.77 8.64 350.88 14.79 352.53 16.62 354.7 17.03 356.16 15.83 360.54 18.84 363.37 19.25 366.08 18.35 368.46 18.79 369.38 20.73 367.26 25.77 372.17 27.53 377.03 29.85 378.95 32.28 377.75 33.48 373.03 34.91 369.68 34.23 369.21 35.41 370.76 38.24 372.17 42.99 372.64 45.61 367.88 49.37 365 51.17 364.88 52.62 366.37 54.64 368.93 56.35 370.22 58.09 367.04 60.39 363.35 61.85 362.93 64.65 359.68 66.76 354.77 68.16 355.58 70.71 Z" id="Kirchberg (SG)" data-bfs_nummer="3392"/>
<path d="M 420.16 323.77 420.42 325.27 423.27 328.42 424.77 328.54 426.71 331.25 426.4 332.94 429.71 335.33 430.12 338.94 431.57 341.24 428.62 342.83 425.83 345.18 424.86 347.98 422.82 349.62 420.91 353.78 420.5 355.87 421.19 358.6 420.55 360.45 419.03 361 418.78 365.3 419.74 366.89 416.88 369.2 416.06 373.67 414.3 374.87 410.57 372.1 407.78 374.55 408.81 375.52 405.9 376.64 402.06 376.92 399.31 380.88 393.75 384.23 390.77 383.25 390.17 385.06 387.88 385.28 386.38 387.79 386.73 390.27 383.97 391.52 379.83 392.42 377.24 394.51 375.72 397.63 373.02 398.96 369.4 401.94 363.62 405.85 363.74 406.94 368.47 408.83 369.66 410.41 367.13 412 362.93 413.32 364.28 414.68 360.89 414.94 358.27 414.2 354.35 410.72 340.7 402.54 336.55 399.43 280.5 359.12 284.86 358.24 288.24 358.47 301.12 353.2 304.83 347.81 301.55 345.17 312.56 333.81 315.67 329.72 316.9 326.85 318.73 324.35 321.24 324.97 323.46 321 326.75 319.37 328.61 320.52 331.22 324.29 335.25 320.93 336.63 318.23 340.31 316.75 342.7 317.28 353.75 308 356.04 309.9 359.03 309.1 363.67 311.29 367.32 312.3 372.19 314.36 373.85 318.12 376.15 319.95 377.6 322.9 381.78 325.52 382.89 327.35 386.43 329.8 389.23 333.91 391.19 334.83 394.66 337.63 393.5 338.75 394.16 340.42 396.28 342.13 400.38 340.39 400.39 339.02 408.22 336.67 409.81 337.29 413.78 336.06 415.15 334.07 415.36 329.55 416.27 327.21 420.16 323.77 Z" id="Schänis" data-bfs_nummer="3315"/>
<path d="M 367.04 257.13 367.59 258.61 373.98 261.22 378.21 262.57 383.22 262.74 382.55 264.48 384.52 267.11 384.18 270.32 398.14 272.71 399.81 274.93 404.52 275.96 405.55 279.34 406.62 280.26 405.08 281.79 406.98 285.31 405.91 287.02 405.66 289.71 408.21 291.84 410.02 292.39 411.83 294.95 408.23 298.42 407.34 300.57 410.27 302.72 408.45 304.28 408.49 307.93 405.29 310.43 403.34 309.3 402.23 306.55 394.54 309.46 390.66 308.71 387.24 309.73 384.61 309.3 380.04 310.39 378.53 308.4 376.96 308.4 372.39 306.22 368.41 303.37 368.5 301.93 367.06 298.75 364.26 297.85 362.63 295.67 356.6 293.68 354.22 293.52 350.91 295.31 345.31 295.96 344.45 297.76 341.52 298.9 338.01 302.02 335.62 301.09 332.41 302.93 327.9 299.62 324.94 296.71 324.54 293.7 327.6 292.73 329.78 288.31 329.64 286.27 328.13 284.78 324.21 283.16 322.12 281.58 320.16 282.46 316.63 282.01 310.62 283.55 307.69 284.96 307.92 287.33 310.77 290.24 310.28 293 304.45 291.97 300.37 290.79 298.17 288.98 293.9 288.21 291.12 288.38 289.01 287.05 282.68 285.65 280.61 287.48 279.19 287.04 276.27 284.16 272.42 283.38 271.19 282.11 271.98 280.54 270.02 278.85 267.39 277.87 263.7 277.34 262.68 278.21 257.9 278.9 257.95 277.27 255.16 276.7 249.3 277.46 249.26 276.26 252.07 275.84 252.04 274.18 249.79 273.18 252.14 271.19 252 269.44 249.15 268.98 246.77 269.37 244.24 268.49 246.34 265.37 248.62 263.08 255.34 261.35 258.32 258.8 260.97 258.16 264.63 258.13 267.21 255.82 264.41 254.48 260.36 250.38 263.32 249.48 265.09 247.74 271.18 244.8 273.74 244.16 274.21 242.79 279.67 239.64 280.89 237.16 282.5 236.5 286.2 238.32 287.88 238.45 296.81 237.37 298.99 236.06 302.97 235.25 306.63 233.82 316.52 233.55 319.99 234.18 325.2 234.48 325.95 235.91 328.83 237.3 330.28 239.49 334.91 239.56 334.73 241.86 339.37 243.25 342.97 245.28 344.59 245.45 347.47 247.18 349.92 247.37 351.75 248.96 356.98 251.31 357.85 250.95 362.41 252.96 366.21 255.63 367.04 257.13 Z" id="Gommiswald" data-bfs_nummer="3341"/>
<path d="M 43.87 256.09 44.74 256.85 48.68 256.64 50.66 257.91 52.89 258.02 56.15 260.62 65.45 260.69 65.47 258.51 69.35 257.08 75.14 255.69 76.18 257.65 75.72 260.82 78.24 262.02 79.29 264.1 81.94 263.46 85.56 264.63 88.37 264.63 93.85 263.45 94.26 264.65 98.96 262.87 104.42 264.85 104.28 266.62 106.3 268.52 108.26 267.39 113.38 266.25 122.25 267.8 124.72 267.36 127.83 268.89 134.41 270.27 139.73 271.9 141.93 274.45 154.34 277.76 153.75 280.34 158.9 279.88 159.82 283.14 161.54 284.21 162.42 285.5 160.04 286.51 163.47 301.68 149.1 303.17 86.18 309.7 66.46 311.66 58.86 311.71 52.53 311.2 43.47 309.52 37.56 307.76 33.47 306.18 28.07 303.55 23.27 300.54 17.9 296.08 1 271.13 1.99 266.55 5.32 265.83 7.34 263.99 10.24 262.8 10.06 261.01 12.58 260.62 23.69 258.3 27.35 258.07 34.97 255.7 41.88 254.77 43.87 256.09 Z" id="Rapperswil-Jona" data-bfs_nummer="3340"/>
<path d="M 435.44 88.78 433.08 92.64 428.01 94.87 428.2 96.95 426.01 97.33 425.46 99.7 422.71 100.38 418.6 99.48 419.03 97.49 416.01 97.29 415.55 94.81 412.7 93.55 409.48 97.52 406.58 99.64 406.31 103.67 410.25 106.56 411.48 109.7 408.41 110.44 401.63 113.23 398.03 115.29 393.88 115.94 393.71 116.96 398.51 117.14 398.4 119.41 393.65 119.22 392.59 119.67 387.02 119.62 386.67 121.65 389.52 122.57 389.55 124.38 384.23 125.06 385.43 128.32 383.34 130.89 384.23 135.07 383.16 137.93 384.29 141.85 386.35 142.15 389.27 140.76 391.33 140.9 393.91 142.4 394.76 145.42 390.08 145.8 389.54 147 381.99 144.7 376.92 147.06 375.9 149.31 370.46 151.33 365.91 151.52 364.54 152.65 356.87 154.22 354.79 155.49 350.38 155.18 349.65 158.79 347.99 159.54 344.6 156.74 340.12 157.63 338.68 153.8 336.62 151.57 333.71 150.83 339 149.28 339.15 148.31 344.1 145.79 342.91 144.39 343.96 143.01 340.93 140.37 334.22 140.11 333.6 138.68 329.74 138.9 327.09 133.95 326.83 132.12 329.29 130.12 331.83 130.66 331.82 128.07 333.47 125.98 337.26 125.54 337.01 124.37 341.36 124.27 343.17 121.63 345.18 120.45 348.36 120.57 350.67 119.38 348.67 117.92 349.95 116.84 345.76 111.69 346.84 110.03 350.48 108.64 352 106.81 350.66 103.15 346.94 101.34 346.15 99.28 346.68 97.3 345.21 93.95 346.16 92.11 345.48 90.84 347.1 88.99 345.74 86.79 343.01 85.55 344.46 82.92 346.68 82.8 347.4 80.39 352.61 78.93 356.99 81.42 362.36 79.57 363.26 80.71 367.65 80.71 368.78 79.2 373.15 77.19 374.06 75.71 372.39 73.12 373.38 71.21 376.17 69.85 378.35 71.77 380.03 70.87 379.21 67.98 381.1 67.44 383.27 69.58 389.6 68.93 390.57 69.72 389.6 71.82 391.34 73.99 389.1 76.06 391.16 76.76 395.71 76.03 397.44 76.85 399.17 78.98 402.55 79.85 404.18 78.11 406.18 78.88 408.12 80.95 412.68 81.53 414.27 82.69 417.41 81.67 421.56 83.56 419.92 85.95 422.61 87.02 423.63 88.4 425.81 87.86 428.98 89.55 434.14 87.45 435.44 88.78 Z" id="Bütschwil-Ganterschwil" data-bfs_nummer="3395"/>
<path d="M 420.16 323.77 416.27 327.21 415.36 329.55 415.15 334.07 413.78 336.06 409.81 337.29 408.22 336.67 400.39 339.02 400.38 340.39 396.28 342.13 394.16 340.42 393.5 338.75 394.66 337.63 391.19 334.83 389.23 333.91 386.43 329.8 382.89 327.35 381.78 325.52 377.6 322.9 376.15 319.95 373.85 318.12 372.19 314.36 367.32 312.3 363.67 311.29 359.03 309.1 356.04 309.9 353.75 308 342.7 317.28 340.31 316.75 336.63 318.23 335.25 320.93 331.22 324.29 328.61 320.52 326.75 319.37 323.46 321 321.24 324.97 318.73 324.35 316.9 326.85 314.83 326.64 311.51 327.48 310.21 324.8 311.8 322.46 308.75 320.15 305.95 321.88 301.86 317.57 296.8 318.12 295.81 319.11 291.11 319.68 288.83 318.16 288.81 316.88 279.01 314.36 275.5 311.94 272.11 313.88 269.23 313.88 262.15 312.65 248.05 309.28 245.18 306.23 261.61 299.14 264.92 301.55 270.43 297.79 271.45 296.67 269.26 294.47 271.02 292.62 275.55 294.07 277.6 293.22 279.19 287.04 280.61 287.48 282.68 285.65 289.01 287.05 291.12 288.38 293.9 288.21 298.17 288.98 300.37 290.79 304.45 291.97 310.28 293 310.77 290.24 307.92 287.33 307.69 284.96 310.62 283.55 316.63 282.01 320.16 282.46 322.12 281.58 324.21 283.16 328.13 284.78 329.64 286.27 329.78 288.31 327.6 292.73 324.54 293.7 324.94 296.71 327.9 299.62 332.41 302.93 335.62 301.09 338.01 302.02 341.52 298.9 344.45 297.76 345.31 295.96 350.91 295.31 354.22 293.52 356.6 293.68 362.63 295.67 364.26 297.85 367.06 298.75 368.5 301.93 368.41 303.37 372.39 306.22 376.96 308.4 378.53 308.4 380.04 310.39 384.61 309.3 387.24 309.73 390.66 308.71 394.54 309.46 402.23 306.55 403.34 309.3 405.29 310.43 408.49 307.93 412.8 309.21 413.05 311.32 415.91 313.97 415.6 317.05 417.45 318.22 420.92 322.1 420.16 323.77 Z" id="Kaltbrunn" data-bfs_nummer="3313"/>
<path d="M 230.85 350.43 220.03 349.68 219.1 345.52 219.71 343.69 218.43 341.77 217.61 337.32 213.9 323.26 224.23 324.95 229.15 308.11 230.19 307.4 236.03 305.67 239.32 310.8 248.05 309.28 262.15 312.65 269.23 313.88 272.11 313.88 275.5 311.94 279.01 314.36 288.81 316.88 288.83 318.16 291.11 319.68 295.81 319.11 296.8 318.12 301.86 317.57 305.95 321.88 308.75 320.15 311.8 322.46 310.21 324.8 311.51 327.48 314.83 326.64 316.9 326.85 315.67 329.72 312.56 333.81 301.55 345.17 304.83 347.81 301.12 353.2 288.24 358.47 284.86 358.24 280.5 359.12 277.23 356.77 276.08 357.73 265.06 353.43 266.7 351.68 257.82 347.83 249.48 345.43 243.88 344.49 239.67 346.46 235.59 345.85 234.74 348.47 231.75 348.03 230.85 350.43 Z" id="Benken (SG)" data-bfs_nummer="3312"/>
<path d="M 355.58 70.71 354.77 68.16 359.68 66.76 362.93 64.65 363.35 61.85 367.04 60.39 370.22 58.09 368.93 56.35 366.37 54.64 364.88 52.62 365 51.17 367.88 49.37 372.64 45.61 372.17 42.99 375.37 43.36 378.68 42.9 377.65 41.45 379.85 39.19 382.09 38.85 384.11 41.97 390.98 42.05 393.57 43.54 395.93 42.38 398.02 43.5 401.1 40.84 403.74 42.1 405.66 42.03 407.22 45.79 409.87 46.12 406.24 49.08 405.05 51.42 413.16 52.25 422.27 49.56 427.39 49.37 429.02 51.49 432.11 54.05 437.64 54.29 445.07 53.76 447.24 56.86 450.62 58.15 451.24 59.16 458.69 56.78 462.57 58.63 460 59.36 460.97 61.56 464.93 63.26 467.02 66.3 470.15 68.05 466.4 73.1 464.04 74.68 460.15 75.65 458.7 74.12 453.12 71.61 452.51 70.57 447.6 68.36 445.61 68.43 441.01 70.88 437.9 71.2 435.56 75.09 436.58 77.07 436.64 80.83 440.17 82.66 437.11 85.55 437.28 86.92 439.86 87.73 437.43 89.06 435.44 88.78 434.14 87.45 428.98 89.55 425.81 87.86 423.63 88.4 422.61 87.02 419.92 85.95 421.56 83.56 417.41 81.67 414.27 82.69 412.68 81.53 408.12 80.95 406.18 78.88 404.18 78.11 402.55 79.85 399.17 78.98 397.44 76.85 395.71 76.03 391.16 76.76 389.1 76.06 391.34 73.99 389.6 71.82 390.57 69.72 389.6 68.93 383.27 69.58 381.1 67.44 379.21 67.98 380.03 70.87 378.35 71.77 376.17 69.85 373.38 71.21 372.39 73.12 374.06 75.71 373.15 77.19 368.78 79.2 367.65 80.71 363.26 80.71 362.36 79.57 356.99 81.42 352.61 78.93 351.22 77.33 354.88 74.12 356.3 71.47 355.58 70.71 Z" id="Lütisburg" data-bfs_nummer="3393"/>
<path d="M 224.84 299.58 224.95 296.22 226.47 296.14 227.19 292.3 225.43 291.85 225.48 289.8 223.11 288.45 218.54 289.38 219.92 286.85 217.87 286.01 218.83 284.37 221.58 282.53 217.61 281.34 214.9 281.41 212.79 280.14 213.47 277.42 210.38 276.19 214.06 275.81 215.54 276.31 218.97 275.2 220.5 273.24 226.49 272.16 231.3 270.84 232.37 271.15 237.08 270.28 244.24 268.49 246.77 269.37 249.15 268.98 252 269.44 252.14 271.19 249.79 273.18 252.04 274.18 252.07 275.84 249.26 276.26 249.3 277.46 255.16 276.7 257.95 277.27 257.9 278.9 262.68 278.21 263.7 277.34 267.39 277.87 270.02 278.85 271.98 280.54 271.19 282.11 272.42 283.38 276.27 284.16 279.19 287.04 277.6 293.22 275.55 294.07 271.02 292.62 269.26 294.47 271.45 296.67 270.43 297.79 264.92 301.55 261.61 299.14 245.18 306.23 248.05 309.28 239.32 310.8 236.03 305.67 233.15 301.64 228.64 299.6 224.84 299.58 Z" id="Uznach" data-bfs_nummer="3339"/>
<path d="M 163.47 301.68 160.04 286.51 162.42 285.5 161.54 284.21 168.31 282.49 174.42 282.34 178.11 281.88 180.88 280.07 184.37 279.33 192.66 280.85 192.97 279.02 195.24 278.75 205.45 276.57 206.51 277.06 210.38 276.19 213.47 277.42 212.79 280.14 214.9 281.41 217.61 281.34 221.58 282.53 218.83 284.37 217.87 286.01 219.92 286.85 218.54 289.38 223.11 288.45 225.48 289.8 225.43 291.85 227.19 292.3 226.47 296.14 224.95 296.22 224.84 299.58 213.36 301 210.32 301.02 192.74 298.65 163.47 301.68 Z" id="Schmerikon" data-bfs_nummer="3338"/>
<path d="M 421.82 411.06 414.04 412.86 409.81 412.63 403.26 410.4 401.49 411.02 391.95 412.43 364.28 414.68 362.93 413.32 367.13 412 369.66 410.41 368.47 408.83 363.74 406.94 363.62 405.85 369.4 401.94 373.02 398.96 375.72 397.63 377.24 394.51 379.83 392.42 383.97 391.52 386.73 390.27 386.38 387.79 387.88 385.28 390.17 385.06 390.77 383.25 393.75 384.23 399.31 380.88 402.06 376.92 405.9 376.64 408.81 375.52 407.78 374.55 410.57 372.1 414.3 374.87 413.13 377.61 411.77 378.29 410.61 381.59 410.5 385.97 411.12 387.02 409.38 394.24 410.12 396.85 409.61 399.66 411.95 404.9 416.05 406.98 421.82 411.06 Z" id="Weesen" data-bfs_nummer="3316"/>
<path d="M 423.99 166.61 424.58 167.87 422.03 169.42 417.47 169.75 415.71 167.88 412.84 167.58 405.53 168.12 397.58 173.41 394.84 171.72 399.35 168.37 396.59 163.06 394.13 161.24 392.18 161 387.5 161.61 384.79 163.01 382.36 161.25 379.49 160.28 377.27 158.76 381.02 156.87 377.52 154.93 378.48 153.7 376.59 151.35 377.47 150.16 376.92 147.06 381.99 144.7 389.54 147 394.36 148.87 404.16 151.94 402.8 153.35 409.67 153.52 406.21 156.62 411.65 157.41 412.15 158.89 415.75 163.36 418.24 164.68 423.99 166.61 Z" id="Lichtensteig" data-bfs_nummer="3374"/>
</g>
</svg>